<svg width="100" height="27" viewBox="0 0 100 27" fill="none" xmlns="http://www.w3.org/2000/svg">
<path d="M7.17489 6.89766H13.9462C15.4036 6.89766 16.4798 7.23516 17.2197 7.80469C18.0269 8.4375 18.4305 9.28125 18.4305 10.3359C18.4305 11.6438 17.713 12.4875 16.4574 12.9305V12.9937C17.9821 13.4367 18.9686 14.6602 18.9686 16.2211C18.9686 17.55 18.4529 18.5203 17.5336 19.1742C16.704 19.7859 15.5605 20.1234 14.0807 20.1234H7.17489V6.89766ZM13.4305 12.1289C14.4395 12.1289 15.1121 11.6648 15.1121 10.8C15.1121 9.97734 14.4619 9.49219 13.4529 9.49219H10.6054V12.1289H13.4305ZM13.722 17.4867C14.8655 17.4867 15.5605 16.875 15.5605 15.9258C15.5605 14.8711 14.7309 14.3438 13.6771 14.3438H10.6054V17.4867H13.722ZM20.3139 6.89766H23.5202V9.34453H20.3139V6.89766ZM20.3139 10.6523H23.5202V20.1023H20.3139V10.6523ZM25.8744 17.6133V12.5297H24.5291V10.6523H25.8744V7.65703H28.991V10.6523H30.8072V12.5297H28.991V16.9594C28.991 17.6977 29.417 17.8875 30.1121 17.8875C30.3812 17.8875 31.1883 17.8664 31.3004 17.8664V20.0602C31.0314 20.1445 29.9327 20.2078 29.0807 20.2078C27.2197 20.2078 25.8744 19.6383 25.8744 17.6133ZM33.8565 9.66094H30.2691V6.89766H40.9865V9.66094H37.3318V20.1023H33.8565V9.66094ZM38.8341 15.3984C38.8341 12.5508 40.9865 10.3992 44.2152 10.3992C47.4439 10.3992 49.574 12.5508 49.574 15.3984C49.574 18.2461 47.4439 20.3977 44.2152 20.3977C40.9865 20.3977 38.8341 18.2461 38.8341 15.3984ZM46.3229 15.3984C46.3229 13.6898 45.583 12.5086 44.1928 12.5086C42.8027 12.5086 42.0628 13.6687 42.0628 15.3984C42.0628 17.1281 42.7803 18.2672 44.1928 18.2672C45.583 18.2461 46.3229 17.107 46.3229 15.3984ZM50.6951 10.6523H53.7668V12.1289H53.8341C54.5516 11.0109 55.426 10.5469 56.3453 10.5047C56.6368 10.4836 56.8386 10.5258 56.9731 10.5891V13.1836H56.8834C55.2018 12.9727 53.9013 13.8375 53.9013 15.8836V20.1234H50.6951V10.6523ZM57.9148 10.6523H60.9865V12.1289H61.0538C61.7713 11.0109 62.6457 10.5469 63.565 10.5047C63.8565 10.4836 64.0583 10.5258 64.1928 10.5891V13.1836H64.1031C62.4215 12.9727 61.1211 13.8375 61.1211 15.8836V20.1234H57.9148V10.6523ZM64.2825 15.3563C64.2825 12.5297 66.3901 10.3781 69.4395 10.3781C70.8744 10.3781 72.0179 10.8211 72.8699 11.5594C74.0583 12.593 74.6637 14.2383 74.6413 16.1578C74.6188 16.1578 67.4215 16.1578 67.4215 16.1578C67.6233 17.4234 68.3632 18.225 69.6861 18.225C70.5381 18.225 71.0762 17.8664 71.3453 17.2758H74.4619C74.2377 18.1195 73.6547 18.9422 72.7803 19.5117C71.9283 20.0602 70.9193 20.3766 69.6413 20.3766C66.3229 20.3766 64.2825 18.225 64.2825 15.3563ZM71.3901 14.3648C71.278 13.2469 70.5157 12.5086 69.4843 12.5086C68.2735 12.5086 67.6457 13.2258 67.4215 14.3648H71.3901ZM75.7399 10.6523H78.8117V11.9391H78.8789C79.6188 10.9266 80.583 10.3781 81.9731 10.3781C84.1704 10.3781 85.4709 11.8547 85.4709 13.9641V20.1234H82.287V14.5547C82.287 13.5633 81.7489 12.8672 80.7175 12.8672C79.6637 12.8672 78.9462 13.6898 78.9462 14.8711V20.1023H75.7399V10.6523ZM87.4439 17.6133V12.5297H86.0986V10.6523H87.4439V7.65703H90.5605V10.6523H92.3767V12.5297H90.5605V16.9594C90.5605 17.6977 90.9865 17.8875 91.6816 17.8875C91.9507 17.8875 92.7579 17.8664 92.87 17.8664V20.0602C92.6009 20.1445 91.5022 20.2078 90.6502 20.2078C88.7668 20.2078 87.4439 19.6383 87.4439 17.6133ZM0 0V27H100V0H0ZM97.3094 24.4688H2.69058V2.53125H97.3094V24.4688Z" fill="white"/>
</svg>
